<?xml version="1.0" encoding="UTF-8"?>
<svg xmlns="http://www.w3.org/2000/svg" viewBox="0 0 1024 1024">
  <path d="M868.208 398.576c-2.096-5.184-4.576-10.144-6.88-15.216C901.568 354.336 928 307.408 928 254c0-88.368-71.632-160-160-160-60.032 0-111.872 33.36-139.232 82.288a382.144 382.144 0 0 0-233.536 0C367.872 127.36 316.032 94 256 94c-88.368 0-160 71.632-160 160 0 53.408 26.432 100.32 66.672 129.344-2.304 5.072-4.784 10.032-6.88 15.216A383.12 383.12 0 0 0 128 542a382.528 382.528 0 0 0 97.216 255.264l-74.208 92.752 49.968 39.968 70.8-88.496c65.776 52.832 149.28 84.512 240.224 84.512s174.432-31.68 240.224-84.512l70.8 88.496 49.968-39.968-74.208-92.752A382.464 382.464 0 0 0 896 542c0-50.72-9.936-99.088-27.792-143.424zM768 158c52.928 0 96 43.072 96 96a95.616 95.616 0 0 1-33.936 73.056 385.888 385.888 0 0 0-117.472-112.528 379.584 379.584 0 0 0-24.352-13.552A95.776 95.776 0 0 1 768 158z m-512 0a95.776 95.776 0 0 1 79.76 42.976c-8.272 4.272-16.448 8.704-24.352 13.552a385.712 385.712 0 0 0-117.472 112.528A95.552 95.552 0 0 1 160 254c0-52.928 43.072-96 96-96z m502.032 588.336a322.304 322.304 0 0 1-45.936 45.008c-54.848 44.112-124.4 70.672-200.096 70.672s-145.248-26.56-200.096-70.672a323.168 323.168 0 0 1-45.936-45.008A318.528 318.528 0 0 1 192 542c0-45.616 9.744-88.944 27.024-128.256a320.464 320.464 0 0 1 43.76-72 322.688 322.688 0 0 1 48.96-48.96 320.464 320.464 0 0 1 72-43.76 317.856 317.856 0 0 1 256.512 0 320.464 320.464 0 0 1 72 43.76 322.688 322.688 0 0 1 48.96 48.96 320.464 320.464 0 0 1 43.76 72A317.92 317.92 0 0 1 832 542c0 77.632-27.824 148.864-73.968 204.336z"></path>
  <path d="M480 542h-96v64h160v-256h-64z"></path>
</svg> 