<?xml version="1.0" encoding="UTF-8"?>
<svg xmlns="http://www.w3.org/2000/svg" xmlns:xlink="http://www.w3.org/1999/xlink" viewBox="0 0 1024 1024">
  <path d="M954.384 605.616l-103.344-103.888c46.656-60.016 71.088-112.528 73.936-117.376l-55.152-32.448c-1.52 2.56-121.44 272.224-356.416 272.224-234.256 0-354.928-269.68-356.432-272.256l-55.136 32.48c2.816 4.8 26.816 56.432 72.688 115.808l-104.912 105.472 45.376 45.136 101.312-101.856c27.424 28.864 59.808 57.04 97.296 80.464l-65.168 130.32 57.248 28.624 64.688-129.376a364.88 364.88 0 0 0 111.024 27.664v145.536h64v-145.536a364.736 364.736 0 0 0 108.72-26.64l64.176 128.368 57.248-28.624-64.48-128.944c37.776-23.28 70.4-51.488 98.064-80.384l99.872 100.416 45.392-45.184z" />
</svg> 