<?xml version="1.0" encoding="UTF-8"?>
<svg xmlns="http://www.w3.org/2000/svg" viewBox="0 0 1024 1024">
  <path d="M512 64C308.752 64 144 228.752 144 432c0 27.488 3.008 54.272 8.736 80.048C189.28 676.8 512 960 512 960s322.752-283.232 359.28-448c5.712-25.76 8.72-52.528 8.72-80C880 228.752 715.248 64 512 64z m296.8 434.144C788.112 591.44 630.224 763.344 512 873.632c-118.208-110.272-276.096-282.16-296.784-375.44A306.4 306.4 0 0 1 208 432c0-167.632 136.368-304 304-304s304 136.368 304 304c0 22.336-2.416 44.592-7.2 66.144z"></path>
  <path d="M512 288a144 144 0 0 0-144 144c0 79.536 64.464 144 144 144s144-64.464 144-144a144 144 0 0 0-144-144z m0 224c-44.112 0-80-35.888-80-80s35.888-80 80-80 80 35.888 80 80-35.888 80-80 80z"></path>
</svg> 