<?xml version="1.0" encoding="UTF-8"?>
<svg xmlns="http://www.w3.org/2000/svg" viewBox="0 0 1024 1024">
  <path d="M512 64C264.576 64 64 264.576 64 512s200.576 448 448 448 448-200.576 448-448S759.424 64 512 64z m0 64c138.656 0 260.352 73.872 327.872 184.32l-194.08 112.048C617.2 380.816 568 352 512 352s-105.2 28.816-133.792 72.368l-194.08-112.048C251.648 201.872 373.344 128 512 128z m0 480c-52.928 0-96-43.072-96-96s43.072-96 96-96 96 43.072 96 96-43.072 96-96 96zM128 512c0-50.272 9.808-98.288 27.456-142.336l199.056 114.928A161.216 161.216 0 0 0 352 512c0 77.408 54.976 141.952 128 156.784V894.56C283.184 878.24 128 712.96 128 512z m416 382.56V668.784c73.024-14.832 128-79.376 128-156.784 0-9.36-0.976-18.48-2.512-27.408l199.056-114.928A381.856 381.856 0 0 1 896 512c0 200.96-155.184 366.24-352 382.56z"></path>
</svg> 