<?xml version="1.0" encoding="UTF-8"?>
<svg xmlns="http://www.w3.org/2000/svg" viewBox="0 0 1024 1024">
  <path d="M722.24 549.008c-44.4 48.896-85.2 68.768-123.232 68.768-45.168 0-86.4-28.032-124.992-68.736-99.088-104.48-92.736-164.112-3.6-255.968-45.92-44.576-194.672-189.28-194.672-189.28S97.12 176 97.12 320c0 105.648 101.312 232.032 237.76 367.088 130.24 128.912 266.192 233.12 391.152 233.12 136.848 0 200.848-185.12 200.848-185.12l-204.64-186.08z m3.808 307.216c-87.008 0-200.24-70.192-346.128-214.608C325.792 588.048 161.12 425.056 161.12 320c0-66.08 61.776-113.84 102.912-138.336l118.88 115.6c-72.192 99.2-57.392 188.192 44.672 295.808 56.608 59.68 112.672 88.688 171.424 88.688 42.272 0 83.648-15.424 123.552-45.952l126.912 115.408c-22.048 42.144-64.784 105.008-123.424 105.008z"></path>
</svg> 